{"title":"Hammer.of.the.Gods.2013.HDRip.XVID.AC3.HQ.Hive-CM8 [PublicHash]","uid":8530243,"size":1571887509,"categoryP":"video","categoryS":"movies","magnet":"?xt=urn:btih:72210b8a737ead7ed30c7f8f15e6b3fe4e74ee23&amp;dn=Hammer.of.the.Gods.2013.HDRip.XVID.AC3.HQ.Hive-CM8+%5BPublicHash%5D&amp;tr=udp%3A%2F%2Ftracker.openbittorrent.com%3A80&amp;tr=udp%3A%2F%2Fopen.demonii.com%3A1337&amp;tr=udp%3A%2F%2Ftracker.coppersurfer.tk%3A6969&amp;tr=udp%3A%2F%2Fexodus.desync.com%3A6969","seeders":1,"leechers":0,"uploader":"R0thschild","files":4,"time":1370128996,"description":"              ***********************************************\n\n                PublicHash - Largest Bittorrent Community\n      \n                         &lt;a href=&quot; http://publichash.com/&quot; rel=&quot;nofollow&quot; target=&quot;_NEW&quot;&gt; http://publichash.com/&lt;/a&gt;\n    \n              ***********************************************\nHammer.of.the.Gods.2013.HDRip.XVID.AC3.HQ.Hive-CM8\n\nSource: 720p Itunes\nVideo: 720x304 @bitrate 1700 2pass\nAudio: English AC3 5.1 @384\nSample: Yes, included\nIMDb: http://www.imdb.com/title/tt2193418/\n\nENCODE\nquality was very nice, added brightness, sharpness and denoise\ngot very nice\nenjoy\n\nGeneral\nComplete name: Hammer.of.the.Gods.2013.HDRip.XVID.AC3.HQ.Hive-CM8.avi\nFormat: AVI\nFormat/Info: Audio Video Interleave\nFile size: 1.45 GiB\nDuration: 1h 38mn\nOverall bit rate: 2 093 Kbps\nWriting application: Nandub v1.0rc2\nWriting library: Nandub build 1853/release\n\nVideo\nID: 0\nFormat: MPEG-4 Visual\nFormat profile: Advanced Simple@L5\nFormat settings, BVOP: 2\nFormat settings, QPel: Yes\nFormat settings, GMC: No warppoints\nFormat settings, Matrix: Default (H.263)\nMuxing mode: Packed bitstream\nCodec ID: XVID\nCodec ID/Hint: XviD\nDuration: 1h 38mn\nBit rate: 1 700 Kbps\nWidth: 720 pixels\nHeight: 304 pixels\nDisplay aspect ratio: 2.35:1\nFrame rate: 23.976 fps\nColor space: YUV\nChroma subsampling: 4:2:0\nBit depth: 8 bits\nScan type: Progressive\nCompression mode: Lossy\nBits/(Pixel*Frame): 0.324\nStream size: 1.17 GiB (81%)\nWriting library: XviD 1.2.1 (UTC 2008-12-04)\n\nAudio\nID: 1\nFormat: AC-3\nFormat/Info: Audio Coding 3\nMode extension: CM (complete main)\nFormat settings, Endianness: Big\nCodec ID: 2000\nDuration: 1h 38mn\nBit rate mode: Constant\nBit rate: 384 Kbps\nChannel(s): 6 channels\nChannel positions: Front: L C R, Side: L R, LFE\nSampling rate: 48.0 KHz\nBit depth: 16 bits\nCompression mode: Lossy\nStream size: 272 MiB (18%)\nAlignment: Split accross interleaves\nInterleave, duration: 42 ms (1.00 video frame)\nInterleave, preload duration: 500 ms\n\nPLOT\nAction epic sees a passionate young man transform into a brutal warrior as he travels\nthe unforgiving landscape in search of his long lost brother Hakan The Ferrocious\nwhose people are relying on him to restore order to their kingdom\n\nCAST\nCharlie Bewley ... Steinar\nClive Standen ... Hagen\nJames Cosmo ... King Bagsecg \n\nGallery: &lt;a href=&quot;\nhttp://imgsure.com/?g=600229&quot; rel=&quot;nofollow&quot; target=&quot;_NEW&quot;&gt;\nhttp://imgsure.com/?g=600229&lt;/a&gt;","torrent":{"xt":"urn:btih:72210b8a737ead7ed30c7f8f15e6b3fe4e74ee23","amp;dn":"Hammer.of.the.Gods.2013.HDRip.XVID.AC3.HQ.Hive-CM8+%5BPublicHash%5D","amp;tr":["udp%3A%2F%2Ftracker.openbittorrent.com%3A80","udp%3A%2F%2Fopen.demonii.com%3A1337","udp%3A%2F%2Ftracker.coppersurfer.tk%3A6969","udp%3A%2F%2Fexodus.desync.com%3A6969"],"infoHash":"72210b8a737ead7ed30c7f8f15e6b3fe4e74ee23","infoHashBuffer":{"type":"Buffer","data":[114,33,11,138,115,126,173,126,211,12,127,143,21,230,179,254,78,116,238,35]},"announce":[],"urlList":[]}}